<svg width="278" height="64" viewBox="0 0 278 64" fill="none" xmlns="http://www.w3.org/2000/svg">
<path fill-rule="evenodd" clip-rule="evenodd" d="M48.5944 8.02768C48.5944 7.91577 48.6013 7.82462 48.6077 7.73886L48.6078 7.73775L48.6081 7.73321L48.6081 7.73309L48.6081 7.73295L48.6082 7.73279L48.6082 7.73257C48.611 7.69429 48.6148 7.64411 48.616 7.59817C48.617 7.56055 48.6193 7.46494 48.5932 7.36058C48.565 7.24778 48.4677 6.99898 48.1765 6.89537C47.9457 6.81327 47.7487 6.88702 47.6973 6.90662C47.5767 6.95262 47.4484 7.03825 47.3647 7.09415L47.3569 7.0993L46.252 7.85944L27.0552 20.5292C26.8646 20.6367 26.7279 20.8024 26.6568 20.9987C26.5868 21.1922 26.5925 21.3802 26.6165 21.5242C26.663 21.8031 26.802 22.0639 26.9428 22.2533C29.5117 25.8356 31.1459 29.9012 31.7425 34.0071C28.6527 35.741 25.6489 36.698 23.311 36.9006C21.5315 34.6627 20.5346 32.8029 20.2295 31.1617C19.9207 29.5009 20.3089 28.0012 21.4599 26.4653L21.4615 26.4633C22.4599 25.1196 23.7469 23.3022 24.4694 21.4586C25.1871 19.6269 25.4176 17.5711 23.9787 15.9626C23.0853 14.9314 21.7106 13.4692 20.1441 12.7174C18.5921 11.873 16.3177 11.0738 14.2656 11.8636L14.2484 11.8705C11.9931 12.817 11.1896 14.1604 10.2099 15.7984L10.0986 15.9844C10.0883 16.0015 10.079 16.0188 10.0706 16.0365H0.530233C0.237393 16.0365 0 16.2739 0 16.5667C0 16.8595 0.237393 17.0969 0.530233 17.0969H10.4725C10.5404 17.1423 10.6355 17.2074 10.7533 17.2923C11.0151 17.4809 11.389 17.7669 11.8287 18.1513C12.7088 18.9204 13.8474 20.0789 14.8792 21.6329C15.5659 22.6769 16.6025 24.3379 17.2064 25.8528C17.3149 26.1248 17.6233 26.2574 17.8953 26.149C18.1673 26.0406 18.3 25.7321 18.1915 25.4601C17.5443 23.8366 16.4543 22.0978 15.7645 21.0491L15.7633 21.0472C14.668 19.3974 13.4608 18.1693 12.5266 17.3528C12.0591 16.9442 11.6588 16.6376 11.3732 16.4319C11.3489 16.4144 11.3255 16.3976 11.3029 16.3816C12.2521 14.7974 12.884 13.7872 14.7184 13.015C16.2414 12.4335 18.0893 13.0052 19.566 13.8114C19.576 13.8168 19.5861 13.822 19.5963 13.8268C20.9154 14.4554 22.1514 15.7426 23.0467 16.7765L23.0539 16.7844C24.0225 17.8646 23.9772 19.3236 23.3174 21.0072C22.6619 22.68 21.4688 24.3789 20.4691 25.7244C19.1402 27.4981 18.6329 29.3425 19.0131 31.3878C19.3857 33.392 20.599 35.5231 22.5516 37.9308C22.6771 38.0856 22.8695 38.1704 23.0684 38.1587C25.5439 38.013 28.6807 37.0692 31.8989 35.333C32.5567 42.5965 29.9383 49.8367 23.4751 54.607C24.8378 49.0847 25.01 44.5893 24.4731 40.1561C24.432 39.8169 24.1237 39.5753 23.7846 39.6164C23.4454 39.6574 23.2038 39.9657 23.2448 40.3049C23.7865 44.7766 23.5858 49.3183 22.0891 55.0375L22.0874 55.0442C22.0426 55.2235 21.994 55.3661 21.9531 55.4848L21.9483 55.4987C21.9305 55.5501 21.9095 55.6112 21.894 55.6639L21.8926 55.6687C21.8815 55.7057 21.8405 55.8431 21.8574 55.995C21.8683 56.0934 21.9119 56.2755 22.0809 56.4193C22.2491 56.5625 22.4351 56.5768 22.5335 56.5723C22.6902 56.5651 22.8225 56.5011 22.8648 56.4806L22.8689 56.4787C22.9693 56.4303 23.1099 56.348 23.2684 56.2552L23.2686 56.2551L23.2687 56.255L23.344 56.211C23.3556 56.2042 23.367 56.197 23.3782 56.1895C31.0422 51.0159 33.9872 42.7915 33.0698 34.6679C35.027 33.4996 36.9882 32.0405 38.8246 30.2919C44.0775 25.2899 48.3484 17.8824 48.5942 8.04313L48.5944 8.02768ZM37.9714 29.3959C36.3375 30.9517 34.6086 32.2627 32.8842 33.3328C32.199 29.1851 30.5143 25.1091 27.9447 21.5274L27.937 21.517C27.9226 21.4978 27.9089 21.4773 27.8963 21.4564L46.9385 8.88886L47.3371 8.61468C46.9456 17.7829 42.9122 24.6912 37.9714 29.3959ZM81.0635 12.5254H79.7048L65.1667 46.8643H66.933L71.8922 35.0017H88.7401L93.6994 46.8643H95.4657L81.0635 12.5254ZM80.3162 14.6759L88.2646 33.6143H72.3678L80.3162 14.6759ZM109.644 46.8651C107.908 46.8651 106.241 46.4549 104.852 45.7028C103.324 44.9507 102.074 43.9934 100.893 42.8311C99.9204 41.6004 99.0176 40.2329 98.3925 38.7287C97.8369 37.2245 97.4896 35.5836 97.4896 34.011C97.4896 32.37 97.8369 30.7291 98.3925 29.0881C99.0176 27.5839 99.7815 26.2165 100.823 24.9858C101.796 23.8918 103.046 22.8662 104.435 22.2508C105.893 21.4987 107.491 21.0885 109.158 21.0885C110.276 21.0885 111.208 21.3339 112.188 21.5922L112.353 21.6355C113.325 21.9773 114.228 22.3876 115.131 23.0029C116.034 23.4815 116.798 24.0969 117.423 24.849C118.187 25.6011 118.673 26.3532 119.159 27.1053V11.5163H120.826V43.72C120.826 44.4721 121.104 44.8139 121.729 44.8139V46.3181H121.312C120.687 46.3181 120.34 46.113 119.923 45.7028C119.576 45.3609 119.298 44.8139 119.298 44.1986V41.2585C118.812 42.079 118.187 42.8311 117.423 43.4465C116.798 44.1986 115.895 44.8139 115.131 45.2242C114.228 45.7028 113.325 46.113 112.492 46.3181C112.369 46.3503 112.248 46.3825 112.129 46.4143L112.125 46.4153L112.124 46.4156C111.234 46.653 110.439 46.8651 109.644 46.8651ZM109.783 45.2242C110.825 45.2242 111.728 45.0874 112.839 44.7455C113.881 44.3353 114.853 43.8567 115.756 43.1046C116.798 42.4892 117.562 41.7371 118.187 40.8483C118.812 39.9594 119.09 39.0706 119.159 38.1134V29.6351C118.812 28.6095 118.326 27.7207 117.631 26.8318C117.503 26.7058 117.377 26.5799 117.252 26.4545C116.629 25.8316 116.021 25.2245 115.27 24.7123C114.367 24.0969 113.325 23.6183 112.353 23.2081C111.311 22.8662 110.338 22.7294 109.436 22.7294C107.908 22.7294 106.519 23.0029 105.199 23.6183C103.949 24.3704 102.837 25.1225 101.935 26.2165C101.866 26.3207 101.798 26.4244 101.729 26.5278L101.729 26.5278C101.036 27.5773 100.363 28.5954 99.9204 29.8402C99.5037 31.2077 99.2954 32.5752 99.2954 34.011C99.2954 35.4468 99.5037 36.951 100.059 38.2501C100.684 39.6176 101.31 40.8483 102.282 41.8739C103.185 42.8311 104.365 43.72 105.616 44.3353C107.005 44.9507 108.394 45.2242 109.783 45.2242ZM146.39 46.8651H147.984V32.6978C147.984 29.0171 147.386 26.2392 146.058 24.2946C144.863 22.2807 142.871 21.2389 140.348 21.2389C139.285 21.2389 138.289 21.5167 137.293 21.7945C136.364 22.1418 135.501 22.5584 134.637 23.1835C133.741 23.6208 133.114 24.283 132.465 24.9677C132.393 25.0441 132.32 25.1208 132.247 25.1975C131.517 26.1003 130.853 27.0031 130.388 27.9754V11.5163H128.794V46.8651H130.388V31.17C130.653 29.9893 131.118 28.8782 131.849 27.8365C132.446 26.8642 133.177 25.9614 134.04 25.1975C134.903 24.4335 135.833 23.9474 136.961 23.5307C137.891 23.0446 139.02 22.9057 140.082 22.9057C144.199 22.9057 146.39 26.2392 146.39 32.8367V46.8651ZM166.337 46.8639C164.541 46.8639 163.022 46.446 161.502 45.6799C159.983 45.053 158.74 44.0778 157.635 42.8937C156.599 41.64 155.702 40.2469 155.08 38.7146C154.459 37.0429 154.044 35.3712 154.044 33.4906C154.044 31.6796 154.459 30.0776 155.08 28.5452C155.564 27.0129 156.461 25.6198 157.635 24.4357C158.602 23.3213 159.845 22.4158 161.364 21.6496C162.746 21.0227 164.403 20.6048 166.06 20.6048C167.856 20.6048 169.444 21.0227 170.825 21.6496C172.345 22.4158 173.657 23.3213 174.762 24.4357C175.866 25.6895 176.626 27.0129 177.317 28.6149C177.938 30.1473 178.283 31.9582 178.283 33.7692V34.1175C178.283 34.2568 178.283 34.3961 178.145 34.3961H155.84C155.978 35.9981 156.323 37.4608 156.876 38.7146C157.497 40.1076 158.257 41.2221 159.224 42.2669C160.121 43.1723 161.295 43.9385 162.4 44.5654C163.643 45.053 165.024 45.3316 166.406 45.3316C167.303 45.3316 168.201 45.3316 169.099 45.053C169.997 44.7744 170.756 44.4261 171.516 43.9385C172.206 43.5206 172.966 43.033 173.518 42.4062C174.14 41.7793 174.623 41.0131 174.9 40.2469L176.419 40.7345L176.384 40.8C175.977 41.5519 175.504 42.4279 174.9 43.1723C174.278 43.9385 173.38 44.5654 172.483 45.053L172.359 45.12L172.275 45.1659C171.437 45.6237 170.539 46.1137 169.582 46.3067L169.398 46.3533C168.362 46.6155 167.38 46.8639 166.337 46.8639ZM176.626 33.003C176.557 31.4707 176.143 29.9383 175.659 28.6149C175.038 27.3611 174.278 26.1074 173.38 25.2019C172.345 24.2268 171.378 23.4606 170.066 22.9034C168.823 22.4158 167.58 22.1372 166.198 22.1372C164.679 22.1372 163.436 22.4158 162.124 22.9034C161.019 23.5302 159.845 24.2964 159.016 25.2019C158.119 26.2467 157.359 27.3611 156.738 28.6149C156.185 30.0776 155.84 31.4707 155.84 33.003H176.626ZM188.614 25.4422C190.191 24.051 192.248 23.2859 194.443 23.2859V21.6165H193.826C193.736 21.6165 193.633 21.643 193.517 21.6729C193.367 21.7115 193.196 21.7556 193.003 21.7556C191.357 21.8948 189.848 22.5903 188.34 23.6337C186.968 24.8162 185.802 26.2769 184.979 28.0853V21.6165H183.333V46.8657H184.979V31.0067C185.734 28.5722 186.831 26.8333 188.614 25.4422ZM208.178 46.8639C206.581 46.8639 204.983 46.446 203.519 45.6799C202.188 45.053 200.99 44.0778 199.858 42.8937C198.793 41.64 197.928 40.2469 197.329 38.7146C196.73 37.0429 196.464 35.3712 196.464 33.4906C196.464 31.6796 196.73 30.0776 197.329 28.5452C197.928 27.0129 198.793 25.6198 199.792 24.4357C200.856 23.3213 202.055 22.4158 203.386 21.6496C204.85 21.0227 206.314 20.6048 208.045 20.6048C209.642 20.6048 211.173 21.0227 212.637 21.6496C214.102 22.4158 215.3 23.3213 216.298 24.4357C217.363 25.6895 218.228 27.0129 218.827 28.6149C219.493 30.1473 219.693 31.9582 219.693 33.7692V34.1175V34.3961H198.061C198.194 35.9981 198.527 37.4608 199.126 38.7146C199.658 40.1076 200.391 41.2221 201.322 42.2669C202.188 43.1723 203.319 43.9385 204.517 44.5654C205.715 45.053 206.913 45.3316 208.245 45.3316C209.11 45.3316 209.975 45.3316 210.84 45.053C211.706 44.7744 212.504 44.4261 213.237 43.9385C213.969 43.5206 214.568 43.033 215.233 42.4062C215.699 41.7793 216.165 41.0131 216.564 40.2469L218.029 40.7345L217.995 40.8002C217.603 41.5521 217.146 42.4279 216.564 43.1723C215.832 43.9385 215.1 44.5654 214.235 45.053C213.985 45.1753 213.747 45.3019 213.513 45.4264L213.513 45.4264L213.513 45.4265C212.815 45.7982 212.154 46.1502 211.306 46.3067C210.308 46.5853 209.243 46.8639 208.178 46.8639ZM218.095 33.003C218.029 31.4707 217.763 29.9383 217.164 28.6149C216.631 27.3611 215.965 26.1074 214.967 25.2019C214.102 24.2268 213.037 23.4606 211.772 22.9034C210.707 22.4158 209.376 22.1372 208.045 22.1372C206.714 22.1372 205.383 22.4158 204.251 22.9034C203.053 23.5302 202.055 24.2964 201.123 25.2019C200.257 26.2467 199.525 27.3611 199.059 28.6149C198.394 30.0776 198.194 31.4707 198.061 33.003H218.095ZM224.742 42.8255V46.8654H226.762V42.8255H224.742ZM233.831 11.5163H235.562V42.3173C235.562 43.2131 235.851 43.9711 236.356 44.4534C237.005 45.0736 237.798 45.3492 238.736 45.3492C239.169 45.3492 239.674 45.3492 240.035 45.2114C240.239 45.1625 240.435 45.1224 240.618 45.0847C240.952 45.0161 241.245 44.9558 241.478 44.8668L241.91 46.245C241.478 46.3828 240.828 46.5206 240.035 46.5895C239.885 46.6154 239.741 46.6414 239.602 46.6664L239.602 46.6664C239.002 46.7743 238.497 46.8651 238.087 46.8651C236.861 46.8651 235.851 46.5206 235.057 45.7626C234.264 45.0046 233.831 43.9711 233.831 42.5929V11.5163ZM248.869 55.1877C248.464 55.3244 247.721 55.4612 246.641 55.4612V56.9654H247.586C247.991 56.9654 248.329 56.9654 248.599 56.8286C249.95 56.5551 250.828 55.9398 251.165 54.8458L265.143 21.6165H263.523L253.934 44.7266L243.535 21.6165H241.914L253.056 46.4359C252.929 46.7408 252.805 47.0376 252.685 47.3257C252.107 48.7175 251.613 49.9054 251.165 50.8118C250.865 51.4632 250.619 52.0595 250.411 52.5655C250.291 52.8562 250.183 53.1171 250.085 53.3416L250.048 53.4256C249.796 54.0005 249.6 54.4481 249.342 54.7091C249.299 54.7524 249.256 54.8025 249.212 54.8552C249.115 54.9688 249.008 55.0942 248.869 55.1877Z" fill="#1391A4"/>
</svg>
